<?xml version="1.0" encoding="UTF-8"?>
<svg width="150px" height="28px" viewBox="0 0 150 28" version="1.1" xmlns="http://www.w3.org/2000/svg" xmlns:xlink="http://www.w3.org/1999/xlink">
    <title>Logo-PB-white</title>
    <defs>
        <polygon id="path-1" points="0.256969424 0.103947842 64.1902878 0.103947842 64.1902878 19.1714838 0.256969424 19.1714838"></polygon>
        <polygon id="path-3" points="0.000134892086 0.174820144 29.5089928 0.174820144 29.5089928 26.9784173 0.000134892086 26.9784173"></polygon>
    </defs>
    <g id="Desk" stroke="none" stroke-width="1" fill="none" fill-rule="evenodd">
        <g id="Home-1---PT" transform="translate(-380.000000, -6681.000000)">
            <g id="Group-10" transform="translate(0.000000, 6142.000000)">
                <g id="Group-7" transform="translate(0.000000, 129.000000)">
                    <g id="Logo-PB-white" transform="translate(380.000000, 410.000000)">
                        <g id="Group-3" transform="translate(85.791367, 1.983588)">
                            <mask id="mask-2" fill="white">
                                <use xlink:href="#path-1"></use>
                            </mask>
                            <g id="Clip-2"></g>
                            <path d="M22.0193795,8.98308453 L20.4824191,8.98308453 C19.6655126,8.98308453 19.0031924,9.64540468 19.0031924,10.4615018 L19.0031924,18.8833543 L15.4382644,18.8833543 L15.4382644,10.2829047 C15.4382644,7.78470324 17.4635342,5.75889388 19.9620054,5.75889388 L23.8806205,5.75889388 L22.0193795,8.98308453 Z M47.8833183,10.8508004 C50.8423112,11.3032284 52.279991,12.5782284 52.279991,14.7494514 C52.279991,16.0956745 51.7460881,17.1810162 50.6939299,17.974991 C49.6420414,18.768696 48.1628147,19.1714838 46.2972572,19.1714838 C43.951214,19.1714838 41.9224371,18.6516097 40.4982464,17.6865917 L42.0122752,15.0632104 L42.0260342,15.0715737 C43.2705486,15.858804 44.7168615,16.2578147 46.3242356,16.2578147 C47.9235162,16.2578147 48.7344874,15.8453147 48.7344874,15.0311061 C48.7344874,14.7181565 48.5623651,14.46375 48.2224371,14.2759802 C47.8771133,14.0855126 47.336196,13.9400989 46.566232,13.8313759 L45.5040917,13.683804 C42.4741457,13.2680665 41.0008543,11.974991 41.0008543,9.73173561 C41.0008543,8.40331835 41.4915917,7.34873201 42.4582284,6.59954137 C43.4267536,5.85116007 44.786196,5.47130396 46.498786,5.47130396 C48.3826888,5.47130396 50.3585881,5.92939748 51.9983363,6.70664568 L50.4929406,9.31464928 C50.0734263,9.14738309 49.2554406,8.82984712 48.7593076,8.69360612 C48.0101169,8.48857014 47.2852068,8.38038669 46.6069694,8.37121403 C45.9557104,8.37121403 45.4517536,8.47777878 45.1126349,8.68713129 C44.7724371,8.89783273 44.600045,9.19108813 44.600045,9.55718525 C44.600045,9.89252698 44.7821493,10.1472032 45.1266637,10.2926169 C45.4752248,10.4396493 46.0139838,10.5691457 46.7272932,10.6757104 L47.8833183,10.8508004 L47.8833183,10.8508004 Z M54.4860162,18.8833543 L58.0514838,18.8833543 L58.0514838,5.75889388 L54.4860162,5.75889388 L54.4860162,18.8833543 Z M56.2682104,4.01096223 C55.1909622,4.01096223 54.3152428,3.13470324 54.3152428,2.0579946 C54.3152428,0.980746403 55.1909622,0.103947842 56.2682104,0.103947842 C57.3454586,0.103947842 58.2217176,0.980206835 58.2217176,2.05745504 C58.2217176,3.13470324 57.3454586,4.01096223 56.2682104,4.01096223 L56.2682104,4.01096223 Z M8.04752698,15.6459442 L3.8232464,15.6459442 L3.8232464,10.8740018 L7.56892986,10.8740018 L7.57000899,10.8740018 L8.04752698,10.8740018 C9.26452338,10.8740018 10.2540917,11.9445054 10.2540917,13.2607824 C10.2540917,14.5757104 9.26452338,15.6459442 8.04752698,15.6459442 L8.04752698,15.6459442 Z M3.8232464,3.87526079 L7.56946942,3.87526079 C8.50750899,3.87526079 9.27072842,4.71941547 9.27072842,5.75673561 C9.27072842,6.79351619 8.50750899,7.63659173 7.56946942,7.63659173 L3.8232464,7.63659173 L3.8232464,3.87526079 Z M10.6827788,9.22535072 C12.1377248,8.40196942 12.6872752,6.95080036 12.6872752,5.75565647 C12.6872752,2.9291277 10.3959982,0.637580935 7.56892986,0.637580935 L0.256969424,0.637580935 L0.256969424,18.8836241 L8.04752698,18.8836241 C11.1532824,18.8836241 13.6709083,16.3654586 13.6709083,13.2602428 C13.6709083,11.4955845 12.5178507,9.76060252 10.6827788,9.22535072 L10.6827788,9.22535072 Z M64.1904227,18.8833543 L60.6246853,18.8833543 L60.6246853,0.104217626 C62.5938399,0.104217626 64.1904227,1.70053058 64.1904227,3.67022482 L64.1904227,18.8833543 Z M31.1496853,16.3419874 C29.0227068,16.3419874 27.2923112,14.5765198 27.2923112,12.4066457 C27.2923112,10.2367716 29.0227068,8.47157374 31.1496853,8.47157374 C33.2772032,8.47157374 35.0073291,10.2367716 35.0073291,12.4066457 C35.0073291,14.5765198 33.2772032,16.3419874 31.1496853,16.3419874 L31.1496853,16.3419874 Z M35.1781025,5.75889388 L35.1781025,7.11186151 C33.9384442,6.05268885 32.3661421,5.47076439 30.73125,5.47076439 C26.9540018,5.47076439 23.8806205,8.54414568 23.8806205,12.3213939 C23.8806205,16.0986421 26.9540018,19.1714838 30.73125,19.1714838 C32.3661421,19.1714838 33.9384442,18.5898291 35.1781025,17.5303867 L35.1781025,18.8833543 L38.4031025,18.8833543 L38.4031025,5.75889388 L35.1781025,5.75889388 Z" id="Fill-1" fill="#FFFFFF" mask="url(#mask-2)"></path>
                        </g>
                        <path d="M75.977536,18.3253867 C73.850018,18.3253867 72.1196223,16.5601888 72.1196223,14.390045 C72.1196223,12.2201709 73.850018,10.4547032 75.977536,10.4547032 C78.1045144,10.4547032 79.8349101,12.2201709 79.8349101,14.390045 C79.8349101,16.5601888 78.1045144,18.3253867 75.977536,18.3253867 L75.977536,18.3253867 Z M80.0056835,7.74202338 L80.0056835,9.09526079 C78.7657554,8.03581835 77.1931835,7.45497302 75.5591007,7.45497302 C71.7813129,7.45497302 68.708741,10.527545 68.708741,14.3047932 C68.708741,18.0823112 71.7813129,21.1546133 75.5591007,21.1546133 C77.1931835,21.1546133 78.7657554,20.5732284 80.0056835,19.5135162 L80.0056835,20.7914838 C80.0056835,23.3814119 77.2482194,23.7677428 75.6044245,23.7677428 C74.1470504,23.7677428 72.5831115,23.2618975 71.2563129,22.4746673 L69.6208813,25.3074011 C72.1859892,26.7979586 74.7176439,27.0210701 75.8464209,27.0210701 C77.0742086,27.0210701 83.1742986,26.7218795 83.2279856,20.8667536 L83.2304137,20.8667536 L83.2304137,7.74202338 L80.0056835,7.74202338 Z M59.4181835,18.3256565 C57.2906655,18.3256565 55.5602698,16.5601888 55.5602698,14.3903147 C55.5602698,12.2204406 57.2906655,10.454973 59.4181835,10.454973 C61.5451619,10.454973 63.2755576,12.2204406 63.2755576,14.3903147 C63.2755576,16.5601888 61.5451619,18.3256565 59.4181835,18.3256565 L59.4181835,18.3256565 Z M63.4460612,7.74229317 L63.4460612,9.09553058 C62.2064029,8.03608813 60.6338309,7.45443345 58.9992086,7.45443345 C55.2219604,7.45443345 52.1493885,10.5278147 52.1493885,14.3050629 C52.1493885,18.0823112 55.2219604,21.1548831 58.9992086,21.1548831 C60.6338309,21.1548831 62.2064029,20.5734982 63.4460612,19.513786 L63.4460612,20.8670234 L66.6710612,20.8670234 L66.6710612,7.74229317 L63.4460612,7.74229317 Z M45.4603597,11.1526349 L41.6019065,11.1526349 L41.6019065,5.85866007 L45.4603597,5.85866007 C46.8208813,5.85866007 47.9280755,7.04625 47.9280755,8.50605216 C47.9280755,9.9661241 46.8208813,11.1526349 45.4603597,11.1526349 L45.4603597,11.1526349 Z M45.4598201,2.62098022 L38.0879676,2.62098022 L38.0879676,20.8675629 L41.6019065,20.8675629 L41.6019065,14.3903147 L45.4598201,14.3903147 C48.7099101,14.3903147 51.3440827,11.7553327 51.3440827,8.50551259 C51.3440827,5.25596223 48.7099101,2.62098022 45.4598201,2.62098022 L45.4598201,2.62098022 Z" id="Fill-4" fill="#FFFFFF"></path>
                        <g id="Group-8" transform="translate(0.000000, 0.095099)">
                            <mask id="mask-4" fill="white">
                                <use xlink:href="#path-3"></use>
                            </mask>
                            <g id="Clip-7"></g>
                            <path d="M25.3633543,19.0878507 C24.8739658,16.5170773 23.6267536,14.1470234 21.7452788,12.2655486 L15.9031025,6.4233723 C15.3810701,5.90107014 15.0934802,5.20691547 15.0932104,4.4682464 C15.0932104,3.72957734 15.3805306,3.03542266 15.9025629,2.51339029 C16.4240558,1.99189748 17.1182104,1.70430755 17.8560701,1.70430755 C18.595009,1.70430755 19.2897032,1.99216727 19.8120054,2.51446942 L25.9325989,8.63506295 C28.6574191,11.3598831 28.6574191,15.793786 25.9325989,18.5186061 L25.3633543,19.0878507 Z M19.8117356,24.6397392 C19.289973,25.1617716 18.5960881,25.4490917 17.8579586,25.4490917 C17.1195594,25.4490917 16.4251349,25.1615018 15.9031025,24.6391996 C15.833768,24.5698651 15.7690198,24.4970234 15.7080486,24.4217536 C16.1963579,23.3177968 16.1960881,22.0522392 15.7072392,20.9480126 C15.7684802,20.872473 15.8329586,20.7996313 15.9025629,20.7302968 L21.867491,14.7653687 C23.0685701,16.4293975 23.8107464,18.3866817 24.0095773,20.4418975 L19.8117356,24.6397392 Z M14.8209982,19.648732 C14.8207284,19.648732 8.82855216,13.6503507 8.75463129,13.5718435 L14.8215378,7.50466727 C14.8215378,7.50466727 20.8134442,13.5033183 20.8876349,13.5820953 L14.8209982,19.648732 Z M13.935027,24.4225629 C13.8743255,24.4975629 13.8095773,24.5701349 13.739973,24.6397392 C13.2182104,25.1615018 12.5245953,25.4488219 11.786196,25.4488219 C11.047527,25.4488219 10.3528327,25.161232 9.83053058,24.6386601 L3.48223921,18.2903687 C0.882868705,15.6907284 0.882868705,11.4613219 3.48223921,8.86222122 L4.27918165,8.06527878 C4.76883993,10.6374011 6.01578237,13.0069155 7.89671763,14.8881205 L13.7388939,20.7302968 C13.8084982,20.7999011 13.8735162,20.872473 13.9339478,20.9477428 C14.7516637,21.957545 14.7519335,23.4130306 13.935027,24.4225629 L13.935027,24.4225629 Z M9.83053058,2.51366007 C10.3525629,1.99189748 11.0467176,1.70403777 11.7848471,1.70403777 C12.5229766,1.70403777 13.2171313,1.99189748 13.7391637,2.51366007 C13.8084982,2.5829946 13.8732464,2.65610612 13.9342176,2.7313759 L13.9342176,2.73110612 C13.4456385,3.8358723 13.4461781,5.10142986 13.9347572,6.20619604 C13.8740558,6.28119604 13.8093076,6.35403777 13.7402428,6.4233723 L7.77477518,12.3883004 C6.57396583,10.7240018 5.83205935,8.76617806 5.63295863,6.7115018 L9.83053058,2.51366007 Z M27.0141637,7.5534982 L20.8935701,1.43290468 C19.2168615,-0.243803957 16.4977068,-0.244883094 14.8209982,1.43182554 L14.8196493,1.43155576 C13.1432104,-0.244343525 10.4254047,-0.244343525 8.74923561,1.43236511 L5.54392986,4.63740108 L2.40067446,7.78065647 C-0.800044964,10.9813759 -0.800044964,16.1706745 2.40067446,19.3719335 L8.74896583,25.719955 C10.4256745,27.3966637 13.1448291,27.3980126 14.8215378,25.7210342 C14.8215378,25.7210342 14.8215378,25.7210342 14.8218076,25.7207644 C16.4985162,27.397473 19.2168615,27.3977428 20.8933004,25.7210342 L24.9924011,21.6222032 L24.9924011,21.6219335 L27.0141637,19.5999011 C30.3406025,16.273732 30.3406025,10.8799371 27.0141637,7.5534982 L27.0141637,7.5534982 Z" id="Fill-6" fill="#FFFFFF" mask="url(#mask-4)"></path>
                        </g>
                    </g>
                </g>
            </g>
        </g>
    </g>
</svg>